<svg xmlns="http://www.w3.org/2000/svg" version="1.1" xmlns:xlink="http://www.w3.org/1999/xlink" xmlns:svgjs="http://svgjs.dev/svgjs" width="1920" height="800" preserveAspectRatio="none" viewBox="0 0 1920 800"><g mask="url(&quot;#SvgjsMask1263&quot;)" fill="none"><rect width="1920" height="800" x="0" y="0" fill="rgba(245, 245, 245, 1)"></rect><path d="M47.256585608273895-105.69713075200508L-90.40175911597717 90.89935987735296 106.19473151338087 228.55770460160403 243.85307623763194 31.961213972245986z" fill="rgba(223, 129, 3, 0.4)" class="triangle-float2"></path><path d="M18.610280065321447 258.28869241176596L234.32085117712148 153.0796171823873 129.11177594774284-62.630953929412726-86.59879516405722 42.578121299965915z" fill="rgba(223, 129, 3, 0.4)" class="triangle-float3"></path><path d="M-90.89503521487696 0.31033633863469134L-8.810200816716474 225.83656532725274 216.7160281719016 143.75173092909225 134.63119377374107-81.7744980595258z" fill="rgba(223, 129, 3, 0.4)" class="triangle-float3"></path><path d="M1654.3028692479947 112.7434143917261L1850.8993598773527 250.40175911597717 1988.5577046016037 53.80526848661913 1791.9612139722458-83.85307623763194z" fill="rgba(223, 129, 3, 0.4)" class="triangle-float2"></path><path d="M1946.174,406.645C2018.246,400.691,2065.374,338.469,2099.848,274.898C2132.259,215.13,2151.418,146.098,2120.224,85.686C2086.614,20.595,2019.4,-20.612,1946.174,-22.712C1869.131,-24.922,1794.842,9.862,1753.925,75.179C1710.36,144.724,1700.009,233.538,1741.182,304.526C1782.233,375.304,1864.631,413.381,1946.174,406.645" fill="rgba(223, 129, 3, 0.4)" class="triangle-float1"></path><path d="M1861.376,249.645C1915.235,252.061,1968.229,225.308,1994.232,178.081C2019.459,132.264,2011.278,74.967,1981.059,32.277C1954.886,-4.698,1906.622,-11.828,1861.376,-9.605C1820.75,-7.609,1782.483,8.915,1760.466,43.116C1736.377,80.536,1728.137,127.037,1747.674,167.022C1769.718,212.139,1811.212,247.395,1861.376,249.645" fill="rgba(223, 129, 3, 0.4)" class="triangle-float3"></path><path d="M99.661,888.859C147.714,884.881,176.159,839.426,198.023,796.451C217.332,758.498,226.863,715.347,207.137,677.61C185.97,637.115,145.293,610.658,99.661,608.275C49.393,605.65,-2.246,622.752,-29.189,665.27C-57.914,710.6,-58.423,768.964,-31.628,815.461C-4.797,862.02,46.107,893.292,99.661,888.859" fill="rgba(223, 129, 3, 0.4)" class="triangle-float1"></path><path d="M31.038,736.411C57.223,737.825,85.455,732.689,99.799,710.737C115.296,687.02,113.694,656.03,99.628,631.437C85.461,606.667,59.525,588.86,31.038,590.516C4.683,592.048,-13.148,615.094,-25.002,638.683C-35.473,659.519,-37.564,683.718,-25.964,703.947C-14.306,724.278,7.636,735.148,31.038,736.411" fill="rgba(223, 129, 3, 0.4)" class="triangle-float1"></path><path d="M-17.116510756843844 558.3709837499114L-75.1777657007641 791.2419580561506 157.6932086054751 849.3032130000709 215.75446354939535 616.4322386938317z" fill="rgba(223, 129, 3, 0.4)" class="triangle-float1"></path><path d="M1699.8712678669974 593.8275228651161L1712.4318973653042 833.4986112062138 1952.1029857064018 820.9379817079072 1939.542356208095 581.2668933668094z" fill="rgba(223, 129, 3, 0.4)" class="triangle-float1"></path><path d="M2018.2886924117659 658.6102800653214L1802.5781212999657 553.4012048359427 1697.369046070587 769.1117759477429 1913.0796171823872 874.3208511771214z" fill="rgba(223, 129, 3, 0.4)" class="triangle-float2"></path><path d="M2010.8950352148768 640.3103363386347L1785.3688062262588 558.2255019404741 1703.2839718280982 783.7517309290922 1928.8102008167164 865.8365653272527z" fill="rgba(223, 129, 3, 0.4)" class="triangle-float1"></path></g><defs><mask id="SvgjsMask1263"><rect width="1920" height="800" fill="#ffffff"></rect></mask><style>
                @keyframes float1 {
                    0%{transform: translate(0, 0)}
                    50%{transform: translate(-10px, 0)}
                    100%{transform: translate(0, 0)}
                }

                .triangle-float1 {
                    animation: float1 5s infinite;
                }

                @keyframes float2 {
                    0%{transform: translate(0, 0)}
                    50%{transform: translate(-5px, -5px)}
                    100%{transform: translate(0, 0)}
                }

                .triangle-float2 {
                    animation: float2 4s infinite;
                }

                @keyframes float3 {
                    0%{transform: translate(0, 0)}
                    50%{transform: translate(0, -10px)}
                    100%{transform: translate(0, 0)}
                }

                .triangle-float3 {
                    animation: float3 6s infinite;
                }
            </style></defs></svg>